<svg xmlns="http://www.w3.org/2000/svg" xmlns:xlink="http://www.w3.org/1999/xlink" width="1080" zoomAndPan="magnify" viewBox="0 0 810 809.999993" height="1080" preserveAspectRatio="xMidYMid meet" version="1.0"><defs><clipPath id="42e12ab580"><path d="M 266.167969 231.511719 L 543.476562 231.511719 L 543.476562 578.761719 L 266.167969 578.761719 Z M 266.167969 231.511719 " clip-rule="nonzero"/></clipPath></defs><g clip-path="url(#42e12ab580)"><path fill="#ed1c24" d="M 466.902344 374.0625 C 471.597656 362.191406 474.179688 349.246094 474.179688 335.699219 C 474.179688 278.160156 427.632812 231.511719 370.210938 231.511719 L 266.167969 231.511719 C 266.167969 269.867188 297.191406 300.957031 335.464844 300.957031 L 361.289062 300.957031 L 361.289062 288.640625 L 388.035156 305.890625 C 388.644531 306.257812 389.238281 306.640625 389.820312 307.042969 L 434.242188 335.691406 L 361.289062 382.738281 L 361.289062 370.402344 L 320.089844 370.402344 C 299.289062 370.402344 279.554688 361.195312 266.167969 345.25 L 266.167969 370.402344 C 266.167969 408.757812 297.1875 439.859375 335.464844 439.871094 L 370.191406 439.882812 C 371.121094 439.882812 372.046875 439.871094 372.96875 439.847656 L 430.589844 439.847656 L 430.589844 427.539062 L 457.226562 444.71875 C 457.910156 445.125 458.578125 445.554688 459.226562 446.007812 L 503.542969 474.585938 L 430.589844 521.636719 L 430.589844 509.292969 L 320.089844 509.292969 C 299.289062 509.292969 279.554688 500.085938 266.167969 484.136719 L 266.167969 509.292969 C 266.167969 547.648438 297.191406 578.742188 335.464844 578.753906 L 439.488281 578.773438 C 496.917969 578.785156 543.476562 532.136719 543.476562 474.585938 C 543.476562 426.550781 511.03125 386.113281 466.902344 374.0625 " fill-opacity="1" fill-rule="nonzero"/></g></svg>